<svg viewBox="0 0 377 134" xmlns="http://www.w3.org/2000/svg">
<defs>
  <linearGradient id="gradA" x1="0%" y1="0%" x2="100%" y2="100%">
    <stop offset="0%" stop-color="#C94A5A"/>
    <stop offset="100%" stop-color="#FFE4B5"/>
  </linearGradient>
</defs>
<path d="M 4.00 6.00 L 118.22 6.00 L 118.22 30.17 L 77.13 30.17 L 77.13 129.94 L 45.17 129.94 L 45.17 30.17 L 4.00 30.17 L 4.00 6.00 Z" fill="#24292f"/><path d="M 166.85 88.10 Q 157.56 88.10 152.86 91.27 Q 148.18 94.40 148.18 100.56 Q 148.18 106.19 151.95 109.41 Q 155.75 112.60 162.47 112.60 Q 170.84 112.60 176.58 106.59 Q 182.31 100.56 182.31 91.50 L 182.31 88.10 L 166.85 88.10 Z M 212.28 76.90 L 212.28 129.94 L 182.31 129.94 L 182.31 116.15 Q 176.34 124.63 168.85 128.51 Q 161.38 132.36 150.68 132.36 Q 136.23 132.36 127.22 123.94 Q 118.22 115.49 118.22 102.05 Q 118.22 85.69 129.45 78.06 Q 140.72 70.41 164.78 70.41 L 182.31 70.41 L 182.31 68.10 Q 182.31 61.04 176.74 57.77 Q 171.18 54.48 159.39 54.48 Q 149.85 54.48 141.62 56.39 Q 133.41 58.30 126.35 62.13 L 126.35 39.47 Q 135.91 37.13 145.53 35.94 Q 155.17 34.74 164.78 34.74 Q 189.94 34.74 201.09 44.65 Q 212.28 54.56 212.28 76.90 Z" fill="url(#gradA)"/><path d="M 294.34 64.29 Q 290.43 62.45 286.56 61.60 Q 282.70 60.73 278.80 60.73 Q 267.35 60.73 261.16 68.08 Q 254.97 75.42 254.97 89.10 L 254.97 131.94 L 225.28 131.94 L 225.28 38.97 L 254.97 38.97 L 254.97 54.25 Q 260.71 45.11 268.12 40.94 Q 275.56 36.74 285.95 36.74 Q 287.43 36.74 289.16 36.87 Q 290.91 36.98 294.23 37.40 L 294.34 64.29 Z" fill="#24292f"/><path d="M 342.83 6.99 L 342.83 34.18 L 373.48 34.18 L 373.48 56.07 L 342.83 56.07 L 342.83 96.67 Q 342.83 103.35 345.41 105.70 Q 347.98 108.05 355.63 108.05 L 370.91 108.05 L 370.91 129.94 L 345.41 129.94 Q 327.82 129.94 320.47 122.39 Q 313.13 114.81 313.13 96.67 L 313.13 56.07 L 298.34 56.07 L 298.34 34.18 L 313.13 34.18 L 313.13 6.99 L 342.83 6.99 Z" fill="#24292f"/></svg>