<svg xmlns="http://www.w3.org/2000/svg"
     viewBox="0 0 792.68359 316.83106"
     role="img"
     aria-label="Tart logo"
     preserveAspectRatio="xMidYMid meet">
  <defs>
    <linearGradient id="grad-a" x1="0%" y1="0%" x2="100%" y2="100%">
      <stop offset="0%" stop-color="#FF5F6D"/>
      <stop offset="40%" stop-color="#FFC371"/>
      <stop offset="70%" stop-color="#FF9A9E"/>
      <stop offset="100%" stop-color="#FAD0C4"/>
    </linearGradient>
  </defs>

  <path d="M 0.00000 73.90625 L 89.02344 73.90625 L 89.02344 312.84180 L 176.36718 312.84180 L 176.36718 73.90625 L 265.39062 73.90625 L 265.39062 0.00000 L 0.00000 0.00000 Z" fill="#24292f"/>
  <path d="M 291.78125 316.83106 C 320.12597 316.83106 340.91211 308.22266 355.60937 281.76758 L 356.44922 281.76758 L 356.44922 312.84180 L 438.33398 312.84180 L 438.33398 164.60938 C 438.33398 114.21875 401.80078 86.08399 333.35351 86.08399 C 265.32617 86.08399 229.00293 114.21875 225.43359 164.60938 L 302.27929 164.60938 C 303.74902 151.59180 313.40722 144.45313 329.99414 144.45313 C 345.32129 144.45313 355.18945 150.75196 355.18945 160.41016 L 355.18945 161.25000 C 355.18945 173.42774 340.49218 178.04688 301.43945 180.56641 C 253.56836 183.71582 216.19531 201.98242 216.19531 251.53321 C 216.19531 295.62500 247.26953 316.83106 291.78125 316.83106 Z M 318.76123 265.74756 C 303.77002 265.74756 293.18799 258.69287 293.18799 246.78809 C 293.18799 234.88330 304.21094 226.94678 322.28857 223.86036 C 338.60253 220.99438 348.74365 218.56934 357.56200 215.48291 L 357.56200 234.00147 C 357.56200 254.72462 337.72070 265.74756 318.76123 265.74756 Z" fill="url(#grad-a)" fill-rule="evenodd"/>
  <path d="M 454.44726 312.84180 L 538.43164 312.84180 L 538.43164 206.60157 C 538.43164 176.99707 555.01855 158.31055 581.26367 158.31055 L 611.91797 158.31055 L 611.91797 91.12305 L 590.92187 91.12305 C 560.47754 91.12305 544.31054 101.62110 536.33203 131.43555 L 535.91211 131.43555 L 535.91211 91.12305 L 454.44726 91.12305 Z" fill="#24292f"/>
  <path d="M 792.68359 91.12305 L 746.91211 91.12305 L 746.91211 30.65430 L 662.92773 30.65430 L 662.92773 91.12305 L 625.55468 91.12305 L 625.55468 154.95117 L 662.92773 154.95117 L 662.92773 246.49414 C 662.92773 292.68555 688.33301 312.84180 746.49218 312.84180 L 792.68359 312.84180 L 792.68359 249.01367 L 766.22851 249.01367 C 750.90136 249.01367 746.91211 245.02442 746.91211 231.79688 L 746.91211 154.95117 L 792.68359 154.95117 Z" fill="#24292f"/>
</svg>
